<mxfile host="app.diagrams.net" modified="2023-06-19T08:23:08.330Z" agent="Mozilla/5.0 (Windows NT 10.0; Win64; x64; rv:109.0) Gecko/20100101 Firefox/110.0" version="21.4.0" etag="4HxHFPOivyk8zfgbl501" type="github">
  <diagram name="Page-1" id="-fBbh5PpjXo07Yokbump">
    <mxGraphModel>
      <root>
        <mxCell id="0" />
        <mxCell id="1" parent="0" />
      </root>
    </mxGraphModel>
  </diagram>
</mxfile>
